<?xml version="1.0" encoding="UTF-8"?>
<!--
This file is used as the base for all of the favicons.

To get a SVG that's usable for a favicon:

1. Change "colorway-blue" to "colorway-purple", "colorway-green", or "colorway-red" to change the icon.
2. Manually interpolate every instance of var(...) in the code to the corresponding color.
3. Remove the <style> block
4. Copy the SVG code below into a new file, icon.svg
5. Run it through https://jakearchibald.github.io/svgomg/ to clean up the extra stuff.
6. Use https://realfavicongenerator.net/ to generate the favicons.

-->
<svg class="favicon colorway-blue" viewBox="-1.5 -10.5 76 76" version="1.1" xmlns="http://www.w3.org/2000/svg" xmlns:xlink="http://www.w3.org/1999/xlink">
  <title>The Y</title>
  <style>
    :root {
    --ylb-color-red-dark: #a92b31;
    --ylb-color-rgb-red-dark: 169, 43, 49;
    --ylb-color-red: #ed1c24;
    --ylb-color-rgb-red: 237, 28, 36;
    --ylb-color-red-light: #f15922;
    --ylb-color-rgb-red-light: 241, 89, 34;
    --ylb-color-orange-dark: #dd5828;
    --ylb-color-rgb-orange-dark: 221, 88, 40;
    --ylb-color-orange: #f47920;
    --ylb-color-rgb-orange: 244, 121, 32;
    --ylb-color-orange-light: #fcaf17;
    --ylb-color-rgb-orange-light: 252, 175, 23;
    --ylb-color-green-dark: #006b6b;
    --ylb-color-rgb-green-dark: 0, 107, 107;
    --ylb-color-green: #01a490;
    --ylb-color-rgb-green: 1, 164, 144;
    --ylb-color-green-light: #20bdbe;
    --ylb-color-rgb-green-light: 32, 189, 190;
    --ylb-color-blue-dark: #0060af;
    --ylb-color-rgb-blue-dark: 0, 96, 175;
    --ylb-color-blue: #0089d0;
    --ylb-color-rgb-blue: 0, 137, 208;
    --ylb-color-blue-light: #00aeef;
    --ylb-color-rgb-blue-light: 0, 174, 239;
    --ylb-color-purple-dark: #5c2e91;
    --ylb-color-rgb-purple-dark: 92, 46, 145;
    --ylb-color-purple: #92278f;
    --ylb-color-rgb-purple: 146, 39, 143;
    --ylb-color-purple-light: #c6168d;
    --ylb-color-rgb-purple-light: 198, 22, 141;
    --ylb-color-white: #FFFFFF;
    --ylb-color-rgb-white: 255, 255, 255;
    --ylb-color-light-grey-1: #f2f2f2;
    --ylb-color-rgb-light-grey-1: 242, 242, 242;
    --ylb-color-light-grey-2: #e7e7e7;
    --ylb-color-rgb-light-grey-2: 231, 231, 231;
    --ylb-color-light-grey-3: #cccccc;
    --ylb-color-rgb-light-grey-3: 204, 204, 204;
    --ylb-color-grey-1: #636466;
    --ylb-color-rgb-grey-1: 99, 100, 102;
    --ylb-color-grey-2: #4F4F4F;
    --ylb-color-rgb-grey-2: 79, 79, 79;
    --ylb-color-grey-3: #3F4042;
    --ylb-color-rgb-grey-3: 63, 64, 66;
    --ylb-color-dark-grey-1: #2F2F2F;
    --ylb-color-rgb-dark-grey-1: 47, 47, 47;
    --ylb-color-dark-grey-2: #231F20;
    --ylb-color-rgb-dark-grey-2: 35, 31, 32;
    --ylb-color-black: #000000;
    --ylb-color-rgb-black: 0, 0, 0;

    // Set blue as the defaults.
    --wsPrimaryColor: var(--ylb-color-blue-dark);
    --wsPrimaryColorRGB: var(--ylb-color-rgb-blue-dark);
    --wsSecondaryColor: var(--ylb-color-blue);
    --wsSecondaryColorRGB: var(--ylb-color-rgb-blue);
    --wsTertiaryColor: var(--ylb-color-blue-light);
    --wsTertiaryColorRGB: var(--ylb-color-rgb-blue-light);
    --wsPartnerColor: var(--ylb-color-purple-dark);
    --wsPartnerColorRGB: var(--ylb-color-rgb-purple-dark);
    --wsLogoChevronDark: var(--ylb-color-blue-dark);
    --wsLogoChevronMid: var(--ylb-color-blue);
    --wsLogoChevronLight: var(--ylb-color-blue-light);
    --wsLogoTriangleDark: var(--ylb-color-purple-dark);
    --wsLogoTriangleLight: var(--ylb-color-purple-light);
    }

    .colorway-blue {
    --wsPrimaryColor: var(--ylb-color-blue-dark);
    --wsPrimaryColorRGB: var(--ylb-color-rgb-blue-dark);
    --wsSecondaryColor: var(--ylb-color-blue);
    --wsSecondaryColorRGB: var(--ylb-color-rgb-blue);
    --wsTertiaryColor: var(--ylb-color-blue-light);
    --wsTertiaryColorRGB: var(--ylb-color-rgb-blue-light);
    --wsPartnerColor: var(--ylb-color-purple-dark);
    --wsPartnerColorRGB: var(--ylb-color-rgb-purple-dark);
    --wsLogoChevronDark: var(--ylb-color-blue-dark);
    --wsLogoChevronMid: var(--ylb-color-blue);
    --wsLogoChevronLight: var(--ylb-color-blue-light);
    --wsLogoTriangleDark: var(--ylb-color-purple-dark);
    --wsLogoTriangleLight: var(--ylb-color-purple-light);
    }
    .colorway-green {
    // Green
    --wsPrimaryColor: var(--ylb-color-green-dark);
    --wsPrimaryColorRGB: var(--ylb-color-rgb-green-dark);
    --wsSecondaryColor: var(--ylb-color-green);
    --wsSecondaryColorRGB: var(--ylb-color-rgb-green);
    --wsTertiaryColor: var(--ylb-color-green-light);
    --wsTertiaryColorRGB: var(--ylb-color-rgb-green-light);
    --wsPartnerColor: var(--ylb-color-blue-dark);
    --wsPartnerColorRGB: var(--ylb-color-rgb-blue-dark);
    --wsLogoChevronDark: var(--ylb-color-green-dark);
    --wsLogoChevronMid: var(--ylb-color-green);
    --wsLogoChevronLight: var(--ylb-color-green-light);
    --wsLogoTriangleDark: var(--ylb-color-blue-dark);
    --wsLogoTriangleLight: var(--ylb-color-blue-light);
    }
    .colorway-purple {
    // Purple.
    --wsPrimaryColor: var(--ylb-color-purple-dark);
    --wsPrimaryColorRGB: var(--ylb-color-rgb-purple-dark);
    --wsSecondaryColor: var(--ylb-color-purple);
    --wsSecondaryColorRGB: var(--ylb-color-rgb-purple);
    --wsTertiaryColor: var(--ylb-color-purple-light);
    --wsTertiaryColorRGB: var(--ylb-color-rgb-purple-light);
    --wsPartnerColor: var(--ylb-color-red-dark);
    --wsPartnerColorRGB: var(--ylb-color-rgb-red-dark);
    --wsLogoChevronDark: var(--ylb-color-purple-dark);
    --wsLogoChevronMid: var(--ylb-color-purple);
    --wsLogoChevronLight: var(--ylb-color-purple-light);
    --wsLogoTriangleDark: var(--ylb-color-red-dark);
    --wsLogoTriangleLight: var(--ylb-color-red);
    }
    .colorway-red {
    // Red.
    --wsPrimaryColor: var(--ylb-color-red-dark);
    --wsPrimaryColorRGB: var(--ylb-color-rgb-red-dark);
    --wsSecondaryColor: var(--ylb-color-red);
    --wsSecondaryColorRGB: var(--ylb-color-rgb-red);
    --wsTertiaryColor: var(--ylb-color-orange-light);
    --wsTertiaryColorRGB: var(--ylb-color-rgb-orange-light);
    --wsPartnerColor: var(--ylb-color-red-dark);
    --wsPartnerColorRGB: var(--ylb-color-rgb-red-dark);
    --wsLogoChevronDark: var(--ylb-color-red-dark);
    --wsLogoChevronMid: var(--ylb-color-red);
    --wsLogoChevronLight: var(--ylb-color-red-light);
    --wsLogoTriangleDark: var(--ylb-color-orange);
    --wsLogoTriangleLight: var(--ylb-color-orange-light);
    }
    <!--     .favicon #logo-the,
        .favicon #logo-ymca,
        .favicon #logo-registeredtm {
          display: none;
        } -->
  </style>
  <defs>
    <radialGradient cx="-28.52994%" cy="-30.8278357%" fx="-28.52994%" fy="-30.8278357%" r="165.500033%" gradientTransform="translate(-0.285299,-0.308278),scale(0.879995,1.000000),translate(0.285299,0.308278)" id="radialGradient1">
      <stop stop-color="var(--wsLogoTriangleLight, black)" offset="0%"></stop>
      <stop stop-color="var(--wsLogoTriangleDark, black)" offset="100%"></stop>
    </radialGradient>
    <radialGradient cx="-15.3531647%" cy="18.7130756%" fx="-15.3531647%" fy="18.7130756%" r="193.28266%" gradientTransform="translate(-0.153532,0.187131),scale(1.000000,0.597426),translate(0.153532,-0.187131)" id="radialGradient2">
      <stop stop-color="var(--wsLogoChevronLight, black)" offset="0%"></stop>
      <stop stop-color="var(--wsLogoChevronMid, black)" offset="44%"></stop>
      <stop stop-color="var(--wsLogoChevronDark, black)" offset="100%"></stop>
    </radialGradient>
  </defs>
  <g id="UI-KIt" stroke="none" stroke-width="1" fill="none" fill-rule="evenodd">
    <g id="Icons-&amp;-Other-Branded-Assets" transform="translate(-150.000000, -377.000000)">
      <g id="logo_blue" transform="translate(150.000000, 377.000000)">
        <path d="M21.1262716,34.9819931 C20.9285077,35.0020945 20.7329934,35.0397281 20.5421116,35.0944352 C19.8764514,35.2542177 19.1952378,35.3430175 18.5102509,35.3592988 C18.1627453,35.364395 17.8175944,35.3024246 17.4943206,35.1768927 C16.9863554,34.9470111 16.9253996,34.3048416 16.9431784,33.4802661 L21.0272183,33.4802661 C21.6113783,33.4802661 21.7282103,33.3828162 21.7282103,32.4807806 C21.7282103,31.4238246 21.6291571,30.3893571 21.1110326,29.6472391 C20.6259259,28.9725864 19.7877833,28.6277639 18.3984986,28.6277639 C16.9253996,28.6277639 16.0059826,29.0050697 15.5030971,29.7147044 C15.0002116,30.4243391 14.8325831,31.4088323 14.8325831,32.8580863 C14.8325831,34.4897464 15.066247,35.5616947 15.7697788,36.2013654 C16.3234608,36.7011082 17.2276389,36.973468 18.4823128,36.973468 C19.3334648,36.9725767 20.1830447,36.9015312 21.0221387,36.7610773 C21.5301039,36.6786197 21.6240774,36.4162548 21.6240774,36.0364503 C21.6301125,35.8508548 21.6182065,35.6651149 21.5885199,35.4817358 C21.527564,35.2718439 21.3777143,34.9819931 21.1262716,34.9819931 Z M16.9431784,31.883588 C16.9431784,30.6817066 17.1971609,30.2719176 18.3984986,30.2719176 C19.5363406,30.2719176 19.6861903,30.6991976 19.6861903,31.7186729 L19.6861903,32.0335108 L16.9431784,32.0335108 L16.9431784,31.883588 Z M10.9618884,28.63526 C10.1756643,28.653317 9.40343331,28.8436765 8.70144342,29.1924732 L8.70144342,26.1315488 C8.70144342,25.8192096 8.56683265,25.4244128 8.04870817,25.4244128 L7.28676041,25.4244128 C6.8041935,25.4244128 6.55275074,25.5718369 6.55275074,26.1315488 L6.55275074,36.0964194 C6.55275074,36.4912162 6.68482168,36.7535811 7.15468947,36.7535811 L8.04108869,36.7535811 C8.54905387,36.7535811 8.69382394,36.4737252 8.69382394,36.003967 L8.69382394,32.2334079 C8.69382394,31.054015 8.94780653,30.6492234 10.1237459,30.6492234 C11.2412693,30.6492234 11.3936588,31.0690073 11.3936588,32.0709915 L11.3936588,32.380832 L11.3936588,32.380832 C11.3936588,32.538251 11.3936588,32.7181584 11.3936588,32.9205542 L11.3936588,36.0064657 C11.3936588,36.5062085 11.5587475,36.7560799 11.9955976,36.7560799 L12.8819968,36.7560799 C13.389962,36.7560799 13.5347689,36.4762239 13.5347689,36.0064657 L13.5347689,30.9590639 C13.5398117,29.8871156 13.0216872,28.6202678 10.9618884,28.6202678 L10.9618884,28.63526 Z M4.82566915,30.5942516 L3.01223348,30.5942516 L3.01223348,33.9050474 C3.01223348,34.67715 3.04779104,34.9744969 3.11382651,35.1069288 C3.16698024,35.1937141 3.26506773,35.2438938 3.3678091,35.2368619 C3.83767688,35.2368619 4.35580136,34.9869905 4.74185489,34.9869905 C4.86652997,34.9799446 4.98814257,35.0266663 5.07497099,35.1149686 C5.16179938,35.2032709 5.2052335,35.3243978 5.1939439,35.4467538 L5.1939439,36.038949 C5.1939439,36.6486352 5.02631539,36.8135503 4.49041213,36.8635245 C4.0062803,36.9163244 3.51964471,36.9438487 3.03255208,36.9459821 C1.25467398,36.9459821 0.873700098,36.3038127 0.873700098,34.344821 L0.873700098,30.5967504 L0.403832313,30.5967504 C0.0838142536,30.5967504 1.36424205e-12,30.381861 1.36424205e-12,30.119496 L1.36424205e-12,29.4098613 C1.36424205e-12,28.9975735 0.167628507,28.8676404 0.452089004,28.8676404 L0.871160272,28.8676404 L0.871160272,27.5333273 C0.871160272,26.9736154 1.10482425,26.8087003 1.59247082,26.8087003 L2.35441858,26.8087003 C2.54491347,26.8052818 2.72762585,26.882976 2.85561824,27.0218241 C2.98361063,27.1606718 3.0444083,27.3471403 3.02239278,27.5333273 L3.02239278,28.8676404 L4.66566012,28.8676404 C5.03393487,28.8676404 5.23458111,28.9176147 5.23458111,29.394869 L5.23458111,29.9695732 C5.22442181,30.5267864 5.12282877,30.5942516 4.82566915,30.5942516 Z" id="logo-the" fill="var(--wsSecondaryColor, black)" fill-rule="nonzero"></path>
        <path d="M44.0482,49.6094636 C44.1217333,49.6613421 44.18249,49.7288004 44.2259878,49.806862 L45.5085999,51.945761 L46.7226366,52.6329073 C46.7949249,52.6623799 46.8493686,52.7229894 46.8702094,52.797192 C46.8910502,52.8713948 46.8759608,52.9509061 46.8293093,53.0127118 L46.6921587,53.2625832 C46.5829462,53.4449893 46.483893,53.4974623 46.2883264,53.3875188 L45.1174667,52.722861 L42.458269,52.6928764 C42.3901306,52.6962394 42.3221732,52.683382 42.2601626,52.6553957 C42.2083837,52.6211596 42.1732894,52.5673925 42.163189,52.5068257 C42.1530889,52.4462591 42.168881,52.3842785 42.2068262,52.3355603 L42.3846141,52.0357147 C42.4392041,51.9101246 42.5720461,51.8355894 42.7097118,51.8533086 L44.5333067,51.8882906 L43.5935712,50.3315919 C43.5101778,50.2228991 43.5101778,50.0729738 43.5935712,49.964281 L43.7358014,49.7144096 C43.7581608,49.6554624 43.8062196,49.6094923 43.8667416,49.5891608 C43.9272637,49.5688295 43.9938642,49.5762812 44.0482,49.6094636 Z M46.3797601,45.7714392 L49.8288437,47.353125 C50.0345696,47.4430787 50.0117111,47.5905029 49.9101181,47.7629141 L49.7755073,47.9952945 C49.7443528,48.0647645 49.6827801,48.1165286 49.6081732,48.1359721 C49.5335661,48.1554156 49.4540202,48.1404288 49.3919936,48.095243 L47.009637,46.9358398 C47.1086902,47.0507807 47.2509204,47.2057009 47.3601329,47.3281379 C47.7868237,47.8278807 48.249072,48.3276234 48.5208334,48.6699472 C48.6424986,48.7813759 48.6609949,48.9644134 48.5640104,49.0972273 L48.4776563,49.2421527 C48.4122489,49.3919321 48.2414459,49.4678203 48.0839833,49.4170626 C47.6471333,49.3545948 46.9613803,49.2271604 46.3061052,49.1097208 C46.1410165,49.082235 45.9403703,49.0272633 45.79814,49.0022761 L48.0103284,50.4515301 C48.1627179,50.5539774 48.2109746,50.6639208 48.1144612,50.8263372 L47.9773106,51.0612163 C47.8757176,51.2336276 47.7563458,51.3110877 47.5582394,51.186152 L44.4469527,49.0347594 C44.2539259,48.9048263 44.3021826,48.7698958 44.3809172,48.6349652 L44.558705,48.3301221 C44.6133727,48.1959657 44.7575411,48.1192699 44.9015815,48.147716 C45.5416176,48.2376697 46.6642206,48.4525591 47.5252216,48.5999832 C46.9639201,47.9428215 46.2121316,47.1007549 45.813379,46.6010122 C45.7214899,46.4905488 45.7214899,46.3316711 45.813379,46.2212077 L45.9937066,45.9138659 C46.0724412,45.7814341 46.1664148,45.6639945 46.3797601,45.7714392 Z M48.2211339,42.5031216 L48.4065412,42.6080676 C48.6097273,42.7230084 48.6605238,42.7954711 48.5538511,42.9728798 C48.4471784,43.1502884 48.3455854,43.2627306 48.175417,43.5550801 C48.0471083,43.7562013 47.9527596,43.9764414 47.8960362,44.2072444 C47.8528592,44.6170334 48.292249,44.8818971 48.9424444,45.249208 C49.5926399,45.616519 50.0955254,45.8613929 50.46634,45.4291154 C50.5685786,45.29929 50.6611022,45.1623337 50.743181,45.0193264 C50.9158891,44.7244781 50.9463671,44.6070386 51.0682787,44.4021441 C51.1901903,44.1972495 51.2587656,44.2297328 51.4644915,44.3471724 L51.6498988,44.4521183 C51.7768901,44.5220823 51.7972087,44.6145347 51.6803767,44.8519125 C51.5559253,45.1017839 51.48735,45.2442106 51.3349604,45.4990794 C51.2106133,45.7216763 51.0596954,45.9288704 50.8854112,46.1162617 C50.2402955,46.7809196 49.4605689,46.5685289 48.4852758,46.0138145 C46.8267695,45.0717994 46.81915,44.3771569 47.4541065,43.2952138 C47.606496,43.0453425 47.7080891,42.9079132 47.855399,42.6780315 C48.0027089,42.4481499 48.1093816,42.4281602 48.2211339,42.5031216 Z M49.605339,40.2317907 L53.5903258,40.901446 C53.6249042,40.9038615 53.6586138,40.9132157 53.689379,40.9289319 C53.8443084,41.006392 53.8011313,41.1338264 53.747795,41.2287775 L53.5700072,41.5336206 C53.5116427,41.6666691 53.3576038,41.7314603 53.2195112,41.6810447 L52.3712094,41.5261245 C52.2365986,41.7759959 52.1324657,41.9459084 51.9876957,42.1907824 C51.8429256,42.4356563 51.7337131,42.6280573 51.6092616,42.8254557 L52.142625,43.425147 C52.2670765,43.5600775 52.3254925,43.6550286 52.2137402,43.8424322 L52.0664303,44.0923035 C51.9546779,44.2822058 51.8861026,44.2797071 51.8124477,44.2322315 C51.7556531,44.1931246 51.7058697,44.1449917 51.6651378,44.0898048 L49.094834,41.1188341 C48.9475508,41.0040922 48.9194443,40.7950468 49.0313384,40.6465772 L49.1659491,40.4191943 C49.2364577,40.2497755 49.4314516,40.166609 49.605339,40.2317907 Z M50.072667,41.093847 L51.1419336,42.2957283 C51.2181284,42.1657952 51.3019427,42.0133737 51.3959162,41.853456 C51.4898898,41.6935383 51.5711642,41.5661039 51.6651378,41.4061862 L50.072667,41.093847 Z" id="logo-ymca" fill="var(--wsPartnerColor, black)" fill-rule="nonzero"></path>
        <path d="M65.7383129,0.0124924408 L44.6856963,0.0124924408 C43.937556,0.0124924408 43.2200946,0.305051063 42.6913176,0.82573732 C42.1625408,1.34642358 41.8659828,2.05253464 41.8664896,2.78856459 C41.8573081,3.24901687 41.973032,3.70355685 42.2017466,4.10538676 L52.769962,22.1111183 C53.2720516,22.9723502 54.2041052,23.5035064 55.2132745,23.5035064 C56.2224438,23.5035064 57.1544975,22.9723502 57.656587,22.1111183 L68.2222626,4.10538676 C68.4517476,3.70375482 68.5683438,3.24923149 68.5600594,2.78856459 C68.5604721,2.05210149 68.2636605,1.34561123 67.7343341,0.824852963 C67.2050075,0.304094698 66.4868933,0.0118297893 65.7383129,0.0124924408 Z" id="logo-triangle" fill="url(#radialGradient1)"></path>
        <path d="M51.3857569,25.7267572 L38.3259723,3.45821989 L38.097388,3.06842053 C36.9227231,1.14167114 34.7932041,-0.0229853155 32.5097711,0.012493569 L21.7282103,0.012493569 C20.5280745,0.0152490239 19.5566559,0.973178855 19.5566592,2.15389129 C19.5499703,2.50805206 19.637527,2.85777804 19.8106418,3.16836909 L32.9643999,25.5818318 C34.2083741,27.6681276 34.2286973,30.2483347 33.0177363,32.3533462 L21.5885199,51.8433137 C21.4154051,52.1539048 21.3278484,52.5036308 21.3345373,52.8577915 C21.3345373,54.0404527 22.3090481,54.9991892 23.511168,54.9991892 L34.5695699,54.9991892 C36.8531347,55.035185 38.9828985,53.8703945 40.1571868,51.9432623 L40.3857711,51.5534629 L51.3832171,32.8131095 L51.5864032,32.4657883 C52.1436709,31.4857145 52.4267493,30.3777648 52.4067669,29.2549411 C52.4115525,28.0863413 52.1022515,26.9372638 51.5102084,25.9241556 L51.3857569,25.7267572 Z" id="logo-chevron" fill="url(#radialGradient2)"></path>
        <path d="M71.6078505,0 C72.0164947,0 72.408365,0.159875902 72.697082,0.444387997 C72.9497091,0.69333608 73.105212,1.01982518 73.1396901,1.36688568 L73.1469871,1.51671927 C73.1476593,1.91874829 72.9857987,2.30453845 72.697082,2.58905054 C72.4444546,2.83799863 72.1128505,2.99152212 71.7601371,3.02601319 L71.6078505,3.03343854 C70.7564074,3.03343854 70.0661762,2.35438019 70.0661762,1.51671927 C70.0661762,0.725595066 70.6818454,0.0759404417 71.4675267,0.00619833591 L71.6078505,0 Z M71.6078505,0.314835336 C71.2834073,0.314174337 70.9720213,0.440507742 70.7423667,0.66597618 C70.5127121,0.891444618 70.3836544,1.19752712 70.3836544,1.51671927 C70.3849642,2.13977291 70.8660483,2.65193003 71.4827944,2.71464846 L71.6078505,2.72109932 C72.2402255,2.71852446 72.7593963,2.24549902 72.8229684,1.63957586 L72.8295067,1.51671927 C72.8295067,0.894424834 72.3487854,0.382589165 71.7327577,0.321040543 L71.6078505,0.314835336 Z M71.6459479,0.757110278 C71.8999305,0.757110278 71.9532668,0.769603847 72.0421607,0.859557544 C72.1357805,0.980885033 72.178508,1.13292998 72.1615325,1.28433889 C72.1615325,1.53421027 72.0573997,1.68413309 71.8211959,1.70162409 L72.2174087,2.16888357 C72.2631256,2.22135656 72.2555061,2.27632826 72.1869308,2.27632826 L72.0396209,2.27632826 C71.9894403,2.28292911 71.9396444,2.26179627 71.9100898,2.22135656 L71.4935583,1.70912023 L71.381806,1.70912023 L71.381806,2.19636942 C71.381806,2.25633855 71.3564077,2.27632826 71.3030714,2.27632826 L71.1989385,2.27632826 C71.1303632,2.27632826 71.1075048,2.27632826 71.1075048,2.19636942 L71.1075048,0.832071692 C71.1075048,0.774101532 71.1351381,0.760908323 71.1708988,0.757949846 L71.6459479,0.757110278 Z M71.381806,0.98199452 L71.381806,1.48173728 L71.6764258,1.48173728 C71.7805586,1.48173728 71.8313552,1.46424628 71.8592932,1.42926429 C71.8872313,1.3942823 71.892311,1.3767913 71.892311,1.26434918 C71.892311,1.09693535 71.877072,1.02697137 71.8135764,0.999485516 C71.6707127,0.97838004 71.5259497,0.972515704 71.381806,0.98199452 Z" id="logo-registeredtm" fill="var(--wsPartnerColor, black)" fill-rule="nonzero"></path>
      </g>
    </g>
  </g>
</svg>
