<svg aria-labelledby="svg-icon-logo-title" version="1.1" id="svg113" xmlns="http://www.w3.org/2000/svg" viewBox="0 0 288 288"><defs id="defs97"><radialGradient id="blue-triangle" cx="732.01001" cy="51.27" r="82.839996" gradientTransform="matrix(1.6 0 0 1.6 -995.34 -106.13)" gradientUnits="userSpaceOnUse"><stop offset="0" stop-color="#c6168d" id="stop9"/><stop offset=".58" stop-color="#92278f" id="stop11"/><stop offset="1" stop-color="#5c2d91" id="stop13"/></radialGradient><radialGradient id="blue-y" cx="632.40997" cy="66.120003" r="180" gradientTransform="matrix(1.6 0 0 1.6 -995.34 -106.13)" gradientUnits="userSpaceOnUse"><stop offset="0" stop-color="#00aeef" id="stop16"/><stop offset=".58" stop-color="#00a1e4" id="stop18"/><stop offset="1" stop-color="#0061af" id="stop20"/></radialGradient><radialGradient id="green-triangle" cx="639.71002" cy="48.209999" r="95.669998" gradientTransform="matrix(1.6 0 0 1.6 -888.77 -106.13)" gradientUnits="userSpaceOnUse"><stop offset="0" stop-color="#00aeef" id="stop23"/><stop offset=".69" stop-color="#0095da" id="stop25"/><stop offset="1" stop-color="#0066b3" id="stop27"/></radialGradient><radialGradient id="green-y" cx="591.14001" cy="92.059998" r="210.17999" gradientTransform="matrix(1.6 0 0 1.6 -888.77 -106.13)" gradientUnits="userSpaceOnUse"><stop offset="0" stop-color="#27bdbe" id="stop30"/><stop offset=".28" stop-color="#0fb2a5" id="stop32"/><stop offset=".44" stop-color="#00ab95" id="stop34"/><stop offset="1" stop-color="#006161" id="stop36"/></radialGradient><radialGradient id="orange-triangle" cx="900.85999" cy="48.209999" r="95.660004" gradientTransform="matrix(1.6 0 0 1.6 -1306.74 -106.13)" gradientUnits="userSpaceOnUse"><stop offset="0" stop-color="#3ec2cf" id="stop39"/><stop offset=".58" stop-color="#00ae9f" id="stop41"/><stop offset="1" stop-color="#008c76" id="stop43"/></radialGradient><radialGradient id="orange-y" cx="826.97998" cy="66.120003" r="196.89999" gradientTransform="matrix(1.6 0 0 1.6 -1306.74 -106.13)" gradientUnits="userSpaceOnUse"><stop offset="0" stop-color="#fcaf17" id="stop46"/><stop offset=".22" stop-color="#fbac18" id="stop48"/><stop offset=".41" stop-color="#faa119" id="stop50"/><stop offset=".59" stop-color="#f78f1c" id="stop52"/><stop offset=".75" stop-color="#f47920" id="stop54"/><stop offset=".83" stop-color="#f07421" id="stop56"/><stop offset=".93" stop-color="#e66525" id="stop58"/><stop offset=".98" stop-color="#dd5928" id="stop60"/></radialGradient><radialGradient id="purple-triangle" cx="770.63" cy="48.209999" r="95.669998" gradientTransform="matrix(1.6 0 0 1.6 -1098.3 -106.13)" gradientUnits="userSpaceOnUse"><stop offset=".01" stop-color="#f15a22" id="stop63"/><stop offset=".48" stop-color="#ed1c24" id="stop65"/><stop offset="1" stop-color="#a92c31" id="stop67"/></radialGradient><radialGradient id="purple-y" cx="696.75" cy="66.120003" r="180" gradientTransform="matrix(1.6 0 0 1.6 -1098.3 -106.13)" gradientUnits="userSpaceOnUse"><stop offset="0" stop-color="#c6168d" id="stop70"/><stop offset=".58" stop-color="#92278f" id="stop72"/><stop offset="1" stop-color="#5c2d91" id="stop74"/></radialGradient><radialGradient id="red-triangle" cx="161.35001" cy="-31.59" r="132.23" gradientUnits="userSpaceOnUse"><stop offset="0" stop-color="#fdb913" id="stop77"/><stop offset=".48" stop-color="#faa61a" id="stop79"/><stop offset=".62" stop-color="#f9a11b" id="stop81"/><stop offset=".79" stop-color="#f7921d" id="stop83"/><stop offset=".97" stop-color="#f47a20" id="stop85"/><stop offset=".97" stop-color="#f47920" id="stop87"/></radialGradient><radialGradient id="red-y" cx="16.84" cy="-0.30000001" r="288.10001" gradientUnits="userSpaceOnUse"><stop offset=".01" stop-color="#f15a22" id="stop90"/><stop offset=".5" stop-color="#ed1c24" id="stop92"/><stop offset="1" stop-color="#a92c31" id="stop94"/></radialGradient></defs><style id="style99">.trademark{fill:#92278f}</style>{% if icon_title %}{% endif %} {% if icon_description %}{% endif %}<g id="g203" transform="translate(0 33.968)"><path d="M258.83.05h-82.89a11.1 11.1 0 0 0-11.11 11.11 10.38 10.38 0 0 0 1.33 5.27l41.61 72.06a11.08 11.08 0 0 0 19.23 0l41.61-72.06a10.47 10.47 0 0 0 1.32-5.27A11.1 11.1 0 0 0 258.83.05z" fill="url(#blue-triangle)" id="path101" style="fill:url(#blue-triangle)"/><path class="trademark" d="M275.86 6.07A6.08 6.08 0 0 1 281.94 0 6.06 6.06 0 0 1 288 6.07a6.06 6.06 0 0 1-6.06 6.07 6.08 6.08 0 0 1-6.08-6.07zm1.26 0a4.81 4.81 0 0 0 4.82 4.81 4.82 4.82 0 0 0 4.81-4.81 4.82 4.82 0 0 0-4.81-4.81 4.81 4.81 0 0 0-4.82 4.81z" id="path103"/><path class="trademark" d="M284.22 9.11h-.58a.53.53 0 0 1-.51-.22l-1.65-2.05h-.43v1.95c0 .24-.1.32-.32.32h-.4c-.27 0-.37 0-.37-.32V3.33c0-.29.18-.3.37-.3h1.76c1 0 1.2.05 1.56.41a2.43 2.43 0 0 1 .47 1.7c0 1-.42 1.6-1.35 1.67l1.56 1.87c.18.21.15.43-.11.43zM282.74 4a7.78 7.78 0 0 0-1.69-.07v2h1.16c.41 0 .61-.07.72-.21a1.06 1.06 0 0 0 .13-.66c0-.67-.06-.95-.32-1.06Z" id="path105"/><path d="M129.78 102.36zm73 1.39-.46-.79-51.42-89.12-.9-1.56A25.17 25.17 0 0 0 128 .05H85.55A8.57 8.57 0 0 0 77 8.62a8.13 8.13 0 0 0 1 4.06l51.79 89.7a27.16 27.16 0 0 1 .21 27.11l-45 78a8.07 8.07 0 0 0-1 4 8.56 8.56 0 0 0 8.57 8.57h43.53a25.2 25.2 0 0 0 22-12.23l.89-1.56 43.3-75 .81-1.4a25.4 25.4 0 0 0 3.22-12.85 26.63 26.63 0 0 0-3.51-13.27z" fill="url(#blue-y)" id="path107" style="fill:url(#blue-y)"/><path d="M83.18 140a13.3 13.3 0 0 0-2.31.45 37.41 37.41 0 0 1-8 1.06 10.46 10.46 0 0 1-4-.73c-2-.92-2.24-3.49-2.18-6.79h16.09c2.31 0 2.77-.39 2.77-4 0-4.22-.39-8.37-2.44-11.34-1.91-2.7-5.2-4.08-10.67-4.08-5.8 0-9.43 1.51-11.4 4.35-1.97 2.84-2.64 6.78-2.64 12.58 0 6.53.92 10.82 3.69 13.38 2.17 2.05 5.74 3.09 10.68 3.09a59.85 59.85 0 0 0 9.94-.85c2.05-.33 2.38-1.38 2.38-2.9A11.73 11.73 0 0 0 85 142c-.24-.84-.83-2-1.82-2zM66.7 127.58c0-4.81 1-6.45 5.74-6.45 4.48 0 5.07 1.71 5.07 5.79v1.26H66.7Zm-23.54-13a20.83 20.83 0 0 0-8.91 2.23v-12.23c0-1.25-.52-2.83-2.56-2.83h-3c-1.91 0-2.9.59-2.9 2.83v39.88c0 1.58.53 2.63 2.38 2.63h3.49c2 0 2.56-1.12 2.56-3V129c0-4.72 1-6.34 5.64-6.34 4.4 0 5 1.68 5 5.69v15.75c0 2 .66 3 2.37 3h3.5c2 0 2.57-1.12 2.57-3v-20.2c.01-4.29-2.04-9.36-10.14-9.36zM19 122.44h-7.14v13.25c0 3.09.13 4.28.4 4.81a1.09 1.09 0 0 0 1 .53c1.85 0 3.89-1 5.41-1a1.69 1.69 0 0 1 1.78 1.84v2.37c0 2.44-.66 3.1-2.77 3.3a53.79 53.79 0 0 1-5.73.33c-7 0-8.5-2.57-8.5-10.42v-15H1.58c-1.25 0-1.58-.86-1.58-1.91v-2.84c0-1.65.66-2.17 1.78-2.17h1.65v-5.34c0-2.24.92-2.9 2.83-2.9h3a2.6 2.6 0 0 1 2.63 2.9v5.34h6.46c1.45 0 2.24.2 2.24 2.11v2.3c-.03 2.23-.43 2.5-1.59 2.5z" fill="#1d9fda" id="path109"/><path d="m174.13 199.34 5.05 8.55 4.78 2.75a1 1 0 0 1 .42 1.52l-.54 1c-.43.73-.83.95-1.6.5l-4.6-2.66-10.48-.12a1.54 1.54 0 0 1-.77-.15.88.88 0 0 1-.21-1.28l.69-1.2a1.23 1.23 0 0 1 1.29-.73l7.18.14-3.7-6.23a1.21 1.21 0 0 1 0-1.47l.56-1c.34-.58.8-.67 1.22-.42a2.35 2.35 0 0 1 .71.8zm22.38-8.19-.54.93c-.38.67-.85.72-1.5.41l-9.38-4.65c.39.46.95 1.08 1.38 1.57 1.67 2 3.5 4 4.57 5.37a1.3 1.3 0 0 1 .16 1.71l-.33.58a1.26 1.26 0 0 1-1.56.7c-1.71-.25-4.41-.76-7-1.23-.65-.11-1.44-.33-2-.43l8.7 5.8c.6.41.8.85.41 1.51l-.54.93c-.39.69-.86 1-1.65.5l-12.23-8.6c-.76-.53-.56-1.07-.25-1.61l.7-1.22a1.2 1.2 0 0 1 1.34-.73c2.53.36 6.94 1.22 10.33 1.81-2.21-2.63-5.16-6-6.74-8a1.2 1.2 0 0 1 0-1.53l.71-1.22c.31-.54.68-1 1.51-.58l13.59 6.33c.81.37.72.96.32 1.65zm6.96-11.65c-.48 1-.75 1.57-1.35 2.59a12.41 12.41 0 0 1-1.78 2.47c-2.54 2.66-5.6 1.81-9.44-.41-6.53-3.77-6.56-6.54-4.06-10.88.59-1 .95-1.55 1.57-2.47.62-.92 1-1 1.45-.7l.73.42c.8.46 1 .75.58 1.46-.42.71-.82 1.16-1.5 2.34a8.86 8.86 0 0 0-1.09 2.6c-.17 1.64 1.56 2.7 4.11 4.17 2.55 1.47 4.54 2.45 6 .72a11.76 11.76 0 0 0 1.1-1.64c.68-1.18.81-1.65 1.28-2.47.47-.82.75-.69 1.55-.22l.74.42c.49.28.58.65.11 1.6zm8.15-14.5-.7 1.22a1.1 1.1 0 0 1-1.38.59l-3.35-.62c-.53 1-.93 1.68-1.5 2.66-.57.98-1 1.75-1.49 2.54l2.1 2.4c.49.55.72.92.28 1.67l-.59 1c-.44.75-.7.75-1 .55a2.29 2.29 0 0 1-.59-.57l-10.08-11.89a1.36 1.36 0 0 1-.24-1.89l.52-.91a1.36 1.36 0 0 1 1.74-.75l15.66 2.69a1.24 1.24 0 0 1 .39.1c.61.32.44.83.23 1.21zm-14.47-.54 4.21 4.81c.3-.51.62-1.13 1-1.77.38-.64.69-1.15 1.06-1.79z" fill="#92278f" id="path111"/></g></svg>