<svg class="favicon colorway-red" viewBox="-1.5 -10.5 76 76" version="1.1" xmlns="http://www.w3.org/2000/svg"><defs><radialGradient cx="-28.52994%" cy="-30.8278357%" fx="-28.52994%" fy="-30.8278357%" r="165.500033%" gradientTransform="matrix(.88 0 0 1 -.034 0)" id="a"><stop stop-color="#fcaf17" offset="0%"/><stop stop-color="#f47920" offset="100%"/></radialGradient><radialGradient cx="-15.3531647%" cy="18.7130756%" fx="-15.3531647%" fy="18.7130756%" r="193.28266%" gradientTransform="matrix(1 0 0 .59743 0 .075)" id="b"><stop stop-color="#f15922" offset="0%"/><stop stop-color="#ed1c24" offset="44%"/><stop stop-color="#a92b31" offset="100%"/></radialGradient></defs><g stroke="none" stroke-width="1" fill="none" fill-rule="evenodd"><g transform="translate(-150 -377)"><g transform="translate(150 377)"><path d="M21.126 34.982a3.35 3.35 0 0 0-.584.112 9.693 9.693 0 0 1-2.032.265 2.698 2.698 0 0 1-1.016-.182c-.508-.23-.569-.872-.55-1.697h4.083c.584 0 .701-.097.701-1 0-1.056-.099-2.09-.617-2.833-.485-.674-1.323-1.02-2.713-1.02-1.473 0-2.392.378-2.895 1.088-.503.71-.67 1.694-.67 3.143 0 1.632.233 2.704.937 3.343.553.5 1.458.772 2.712.772.851 0 1.701-.071 2.54-.212.508-.082.602-.345.602-.725a2.884 2.884 0 0 0-.035-.554c-.061-.21-.211-.5-.463-.5Zm-4.183-3.098c0-1.202.254-1.612 1.455-1.612 1.138 0 1.288.427 1.288 1.447v.315h-2.743v-.15Zm-5.981-3.249a5.358 5.358 0 0 0-2.26.557v-3.06c0-.313-.135-.708-.653-.708h-.762c-.483 0-.734.148-.734.708v9.964c0 .395.132.658.602.658h.886c.508 0 .653-.28.653-.75v-3.77c0-1.18.254-1.585 1.43-1.585 1.117 0 1.27.42 1.27 1.422v3.935c0 .5.165.75.602.75h.886c.508 0 .653-.28.653-.75V30.96c.005-1.072-.513-2.339-2.573-2.339v.015Zm-6.136 1.96H3.012v3.31c0 .772.036 1.07.102 1.202a.276.276 0 0 0 .254.13c.47 0 .988-.25 1.374-.25a.433.433 0 0 1 .333.128.42.42 0 0 1 .119.332v.592c0 .61-.168.775-.704.825-.484.052-.97.08-1.457.082-1.778 0-2.16-.642-2.16-2.601v-3.748h-.47c-.32 0-.403-.215-.403-.478v-.71c0-.411.168-.541.452-.541h.42v-1.335c0-.56.233-.724.72-.724h.762a.665.665 0 0 1 .502.213.643.643 0 0 1 .166.511v1.335h1.644c.368 0 .569.05.569.527v.575c-.01.557-.112.624-.41.624Z" fill="#ed1c24" fill-rule="nonzero"/><path d="M44.048 49.61a.59.59 0 0 1 .178.197l1.283 2.139 1.214.687a.247.247 0 0 1 .107.38l-.138.25c-.11.182-.208.234-.404.125l-1.17-.665-2.66-.03a.43.43 0 0 1-.198-.038.22.22 0 0 1-.053-.32l.178-.3a.31.31 0 0 1 .325-.182l1.823.035-.94-1.556a.3.3 0 0 1 0-.368l.143-.25a.212.212 0 0 1 .13-.125.216.216 0 0 1 .182.02Zm2.332-3.839 3.449 1.582c.206.09.183.238.081.41l-.134.232a.257.257 0 0 1-.384.1l-2.382-1.16c.099.116.24.27.35.393.427.5.89 1 1.16 1.342a.32.32 0 0 1 .044.427l-.086.145a.322.322 0 0 1-.394.175c-.437-.062-1.123-.19-1.778-.307-.165-.028-.366-.083-.508-.108l2.212 1.45c.153.102.201.212.104.374l-.137.235c-.101.173-.22.25-.419.125l-3.111-2.151c-.193-.13-.145-.265-.066-.4l.178-.305a.306.306 0 0 1 .343-.182c.64.09 1.762.305 2.623.452-.561-.657-1.313-1.5-1.712-1.999a.296.296 0 0 1 0-.38l.18-.307c.08-.133.173-.25.387-.143Zm1.841-3.268.186.105c.203.115.254.187.147.365-.107.177-.208.29-.379.582a2.18 2.18 0 0 0-.279.652c-.043.41.396.675 1.046 1.042.65.368 1.154.612 1.524.18a3.39 3.39 0 0 0 .277-.41c.173-.295.203-.412.325-.617.122-.205.19-.172.396-.055l.186.105c.127.07.147.163.03.4-.124.25-.193.392-.345.647-.124.223-.275.43-.45.617-.645.665-1.424.453-2.4-.102-1.658-.942-1.666-1.637-1.03-2.719.151-.25.253-.387.4-.617.148-.23.254-.25.366-.175Zm1.384-2.271 3.985.67a.257.257 0 0 1 .1.027c.154.077.111.205.058.3l-.178.305a.278.278 0 0 1-.35.147l-.849-.155c-.134.25-.239.42-.383.665-.145.245-.254.437-.379.634l.534.6c.124.135.182.23.07.417l-.147.25c-.111.19-.18.188-.254.14a.62.62 0 0 1-.147-.142l-2.57-2.971a.339.339 0 0 1-.064-.472l.135-.228a.345.345 0 0 1 .44-.187Zm.468.862 1.069 1.202c.076-.13.16-.283.254-.443.094-.16.175-.287.27-.447l-1.593-.312Z" fill="#a92b31" fill-rule="nonzero"/><path d="M65.738.012H44.686c-.748 0-1.466.293-1.995.814a2.752 2.752 0 0 0-.825 1.963c-.009.46.107.915.336 1.316L52.77 22.111a2.825 2.825 0 0 0 2.443 1.393c1.01 0 1.941-.532 2.444-1.393L68.222 4.105a2.56 2.56 0 0 0 .338-1.316c0-.737-.296-1.443-.826-1.964a2.843 2.843 0 0 0-1.996-.813Z" fill="url(#a)"/><path d="M51.386 25.727 38.326 3.458l-.229-.39C36.923 1.142 34.793-.023 32.51.012H21.728c-1.2.003-2.171.961-2.171 2.142-.007.354.08.704.254 1.014l13.153 22.414a6.687 6.687 0 0 1 .054 6.771l-11.43 19.49a2 2 0 0 0-.253 1.015c0 1.182.974 2.141 2.176 2.141H34.57c2.283.036 4.413-1.129 5.587-3.056l.229-.39 10.997-18.74.203-.347a6.26 6.26 0 0 0 .82-3.211 6.546 6.546 0 0 0-.896-3.33l-.124-.198Z" fill="url(#b)"/><path d="M71.608 0c.408 0 .8.16 1.09.444.252.25.407.576.442.923l.007.15c0 .402-.161.788-.45 1.072a1.55 1.55 0 0 1-.937.437l-.152.007a1.53 1.53 0 0 1-1.542-1.516c0-.791.616-1.441 1.402-1.51l.14-.007Zm0 .315c-.325 0-.636.126-.866.351a1.19 1.19 0 0 0-.358.85 1.215 1.215 0 0 0 1.099 1.199l.125.006a1.22 1.22 0 0 0 1.215-1.081l.007-.123A1.21 1.21 0 0 0 71.733.32l-.125-.006Zm.038.442c.254 0 .307.013.396.103a.588.588 0 0 1 .12.424c0 .25-.105.4-.34.418l.395.467c.046.052.039.107-.03.107h-.147a.138.138 0 0 1-.13-.055l-.416-.512h-.112v.487c0 .06-.026.08-.079.08H71.2c-.069 0-.091 0-.091-.08V.832c0-.058.027-.071.063-.074h.475Zm-.264.225v.5h.294c.105 0 .155-.018.183-.053.028-.035.033-.052.033-.165 0-.167-.015-.237-.078-.265a2.04 2.04 0 0 0-.432-.017Z" fill="#a92b31" fill-rule="nonzero"/></g></g></g></svg>
