<?xml version="1.0" standalone="no"?>
<!DOCTYPE svg PUBLIC "-//W3C//DTD SVG 20010904//EN"
 "http://www.w3.org/TR/2001/REC-SVG-20010904/DTD/svg10.dtd">
<svg version="1.0" xmlns="http://www.w3.org/2000/svg"
 width="700.000000pt" height="700.000000pt" viewBox="0 0 700.000000 700.000000"
 preserveAspectRatio="xMidYMid meet">
<metadata>
Created by potrace 1.14, written by Peter Selinger 2001-2017
</metadata>
<g transform="translate(0.000000,700.000000) scale(0.100000,-0.100000)"
fill="#000000" stroke="none">
<path d="M2055 6011 c-71 -33 -115 -102 -115 -179 0 -49 51 -148 241 -462 5
-8 42 -71 82 -140 41 -69 100 -170 133 -225 32 -55 64 -109 70 -120 6 -11 73
-126 149 -255 513 -873 589 -1006 613 -1075 48 -135 39 -315 -21 -445 -27 -57
-31 -65 -167 -295 -46 -77 -91 -153 -100 -170 -10 -16 -41 -70 -70 -120 -29
-49 -58 -99 -64 -110 -6 -11 -19 -31 -27 -45 -9 -14 -81 -135 -159 -270 -238
-408 -380 -650 -440 -750 -31 -52 -61 -106 -65 -120 -34 -101 20 -211 121
-251 38 -14 1137 -15 1211 0 147 29 289 122 370 241 16 25 169 281 338 570
169 289 375 640 457 780 292 497 309 528 329 596 21 71 28 195 16 269 -14 86
-51 169 -162 359 -63 108 -126 215 -140 236 -14 22 -25 42 -25 44 0 3 -17 33
-39 68 -21 35 -70 117 -108 183 -39 66 -155 264 -258 440 -103 176 -196 334
-205 350 -29 50 -280 479 -289 495 -5 8 -33 54 -62 102 -87 146 -194 237 -339
290 -65 23 -65 23 -650 25 -553 3 -587 2 -625 -16z"/>
<path d="M4144 6006 c-147 -68 -193 -255 -96 -392 15 -22 310 -524 452 -769
212 -366 506 -859 529 -886 92 -111 274 -118 375 -15 23 23 91 127 151 231 61
104 122 209 137 234 15 25 47 82 73 126 25 44 50 87 55 95 54 86 611 1042 620
1065 33 86 -6 216 -82 276 -76 61 -22 58 -1138 58 l-1025 1 -51 -24z"/>
<path d="M6680 6024 c-42 -17 -79 -67 -87 -116 -11 -71 64 -156 132 -152 11 0
30 2 42 3 49 3 109 82 106 139 0 6 -1 21 -2 32 0 11 -16 36 -33 56 -29 30 -40
36 -88 39 -30 3 -62 2 -70 -1z m119 -43 c79 -51 45 -184 -50 -195 -136 -16
-175 177 -43 213 34 9 59 4 93 -18z"/>
<path d="M6695 5960 c-3 -5 -8 -101 -6 -127 2 -24 21 -13 21 12 0 32 7 31 42
-2 31 -30 51 -24 23 7 -15 17 -16 22 -4 36 14 17 14 52 -1 67 -9 10 -69 16
-75 7z m65 -40 c0 -11 -7 -20 -15 -20 -8 0 -18 0 -22 0 -5 0 -9 9 -9 20 -1 15
5 20 22 20 17 0 24 -6 24 -20z"/>
<path d="M756 3672 c-15 -17 -16 -64 -14 -510 2 -361 6 -494 15 -503 12 -12
121 -14 154 -4 26 9 29 35 29 256 0 125 4 219 11 238 15 43 52 60 127 58 49
-2 66 -6 84 -25 23 -22 23 -28 26 -264 2 -196 5 -245 17 -257 20 -20 143 -18
164 4 14 14 16 54 15 298 0 270 -1 284 -22 324 -38 72 -124 114 -223 107 -61
-4 -158 -25 -165 -35 -3 -5 -12 -9 -20 -9 -11 0 -14 26 -14 148 0 187 -3 192
-99 192 -53 0 -72 -4 -85 -18z"/>
<path d="M270 3562 c-44 -7 -50 -19 -50 -108 0 -73 -2 -82 -17 -80 -10 2 -28
0 -40 -5 -21 -7 -23 -15 -23 -73 0 -55 3 -67 20 -76 11 -6 28 -10 38 -8 16 3
17 -12 19 -167 3 -318 13 -366 86 -396 49 -21 271 -19 293 3 18 18 26 100 13
137 -9 21 -13 23 -52 17 -101 -17 -125 -18 -132 -5 -8 12 -15 384 -8 404 2 6
40 10 91 10 48 -1 93 3 100 8 17 13 16 122 -2 139 -9 10 -37 13 -92 12 -44 -1
-84 2 -89 7 -6 4 -10 37 -9 73 3 84 -12 105 -76 109 -25 1 -56 0 -70 -1z"/>
<path d="M1755 3389 c-22 -4 -42 -5 -46 -4 -3 2 -30 -8 -60 -23 -97 -49 -136
-133 -143 -312 -15 -369 106 -459 542 -407 24 3 52 13 63 23 25 23 26 93 1
124 l-18 23 -87 -17 c-112 -23 -213 -24 -254 -3 -35 18 -53 59 -53 118 l0 39
204 0 c254 0 240 -8 233 140 -9 179 -70 272 -194 296 -43 8 -149 10 -188 3z
m156 -160 c26 -13 39 -49 39 -104 l0 -43 -122 2 -123 1 0 53 c1 61 22 90 76
101 42 9 104 4 130 -10z"/>
<path d="M4666 2309 c-30 -44 -44 -23 193 -293 50 -57 71 -63 85 -24 8 23 5
32 -22 62 l-31 35 36 61 c29 48 40 59 57 55 76 -16 75 -16 92 10 18 27 15 47
-7 51 -7 1 -70 12 -139 24 -69 12 -136 23 -150 25 -14 2 -41 7 -61 11 -31 5
-39 3 -53 -17z m221 -92 c3 -3 -5 -22 -17 -42 l-23 -37 -43 49 c-24 26 -43 51
-44 54 0 7 118 -16 127 -24z"/>
<path d="M4548 2103 c-29 -34 -66 -108 -72 -143 -9 -64 39 -119 160 -180 120
-61 190 -30 255 112 17 36 17 37 -6 52 -28 18 -30 17 -75 -57 -34 -54 -47 -62
-93 -53 -49 9 -161 87 -165 114 -2 12 12 51 32 86 l35 63 -25 12 c-31 14 -28
14 -46 -6z"/>
<path d="M4365 1785 l-16 -36 53 -62 c29 -34 65 -75 80 -92 15 -16 26 -31 24
-33 -2 -2 -46 4 -97 13 -52 9 -105 18 -119 20 -14 2 -30 1 -36 -3 -12 -8 -34
-46 -34 -60 0 -5 46 -40 103 -77 56 -38 104 -71 107 -75 3 -3 17 -13 33 -23
15 -9 38 -24 51 -32 21 -14 25 -14 40 0 33 33 20 52 -84 120 -55 36 -100 67
-100 69 0 2 17 0 38 -4 20 -5 55 -11 77 -14 22 -4 54 -9 71 -12 25 -5 35 -1
48 17 19 28 13 40 -78 143 l-60 68 99 -50 c131 -65 143 -68 160 -45 25 32 17
48 -32 71 -27 12 -102 46 -168 77 -66 30 -125 55 -131 55 -7 0 -19 -16 -29
-35z"/>
<path d="M4166 1449 c-23 -33 -21 -42 24 -113 22 -35 40 -68 40 -73 0 -6 -28
-9 -67 -7 -95 3 -118 -2 -132 -33 -7 -14 -8 -30 -4 -34 4 -4 69 -9 143 -11
125 -3 138 -6 175 -29 67 -43 82 -45 100 -9 l16 30 -48 30 c-26 16 -57 35 -68
43 -19 13 -115 161 -115 176 0 4 -11 18 -24 30 l-24 22 -16 -22z"/>
</g>
</svg>
